<svg id="Calque_1" data-name="Calque 1" xmlns="http://www.w3.org/2000/svg" viewBox="0 0 247.94 248.15"><path d="m11.07 117.24.27-2 10.35-.93-9.7-4 .27-2.07 10.4-1.34-9.76-3.57.27-2.06 12.34 4.88-.27 2.1-10.62 1.37 9.91 4.05-.28 2.12ZM14.34 97l2.52-8.75 1.64.47-2 6.85 3.52 1 1.72-6 1.64.47-1.72 6 3.93 1.13 2-7 1.65.48-2.56 8.92ZM18.43 84l.76-1.83 10.3 4.31 2.51-6 1.58.66-3.28 7.79ZM34.86 77.34a5.73 5.73 0 0 1-3.1.68 8.39 8.39 0 0 1-6-3.38 5.68 5.68 0 0 1-1-3 5.85 5.85 0 0 1 .81-3.18 6 6 0 0 1 1.89-2.11 5 5 0 0 1 2.37-.84 5.36 5.36 0 0 1 2.48.4l-1 1.81a3.94 3.94 0 0 0-2.3-.12 3.23 3.23 0 0 0-2 1.73 3.34 3.34 0 0 0-.21 3.28 6.32 6.32 0 0 0 2.62 2.58 6.18 6.18 0 0 0 3.58.9 3.31 3.31 0 0 0 2.69-1.88 3.25 3.25 0 0 0 .44-2.68 3.74 3.74 0 0 0-1.54-2l1-1.8a5.8 5.8 0 0 1 1.81 2 4.84 4.84 0 0 1 .6 2.54 6 6 0 0 1-.85 2.73 5.84 5.84 0 0 1-2.29 2.34ZM42.11 65.54a5.86 5.86 0 0 1-3.24.31 7.52 7.52 0 0 1-3.22-1.48 7.45 7.45 0 0 1-2.26-2.72 5.93 5.93 0 0 1-.54-3.2 6.45 6.45 0 0 1 1.34-3.16 6.37 6.37 0 0 1 2.7-2.11 5.73 5.73 0 0 1 3.23-.31 7.94 7.94 0 0 1 5.48 4.19 5.77 5.77 0 0 1 .54 3.21 6.25 6.25 0 0 1-1.33 3.16 6.37 6.37 0 0 1-2.7 2.11Zm-1.72-1.47a3.75 3.75 0 0 0 3.06-1.68 3.71 3.71 0 0 0 .82-3.4 6.55 6.55 0 0 0-5.66-4.34 4.34 4.34 0 0 0-3.89 5.07 6.58 6.58 0 0 0 5.67 4.35ZM41.46 46.83 43.35 45 53 49.77l-4.3-9.89 1.89-1.8 8.89 9.3-1.4 1.34-6.91-7.22 4.35 9.67-1.19 1.13-9.46-4.77 6.9 7.22-1.4 1.34ZM54.8 34.78l7.4-5.31 1 1.39L57.41 35l2.13 3 5.07-3.65 1 1.39-5.07 3.65 2.38 3.31 5.94-4.26 1 1.39-7.54 5.42ZM73.74 31.33 78 29.12l.77 1.49-4.29 2.21ZM83.81 18.41 86 17.7l8.77 7.53-3.11-9.4 1.9-.63 4 12.23-2.15.71-8.75-7.54 3.06 9.4-1.88.62ZM98.31 14.1l1.93-.44 2.82 12.56-1.93.43ZM108.75 24.53a5.65 5.65 0 0 1-2.38-2.1 7.69 7.69 0 0 1-1.17-3.33 7.72 7.72 0 0 1 .32-3.52 5.76 5.76 0 0 1 1.8-2.63 6 6 0 0 1 3-1.24 6.19 6.19 0 0 1 2.82.27 5 5 0 0 1 2.09 1.41 5.44 5.44 0 0 1 1.15 2.24l-2.06.25a3.9 3.9 0 0 0-1.23-1.88 3.23 3.23 0 0 0-2.55-.54 3.33 3.33 0 0 0-2.77 1.77 6.22 6.22 0 0 0-.52 3.64 6.2 6.2 0 0 0 1.4 3.42 3.88 3.88 0 0 0 5.53-.19 3.8 3.8 0 0 0 .65-2.39l2.06-.26a5.86 5.86 0 0 1-.53 2.64 4.77 4.77 0 0 1-1.68 2A5.9 5.9 0 0 1 112 25a5.82 5.82 0 0 1-3.25-.47ZM120.41 11.08l9.1.14v1.71l-7.13-.11-.06 3.65 6.24.1v1.71l-6.25-.1-.07 4.09 7.31.11v1.71l-9.28-.15ZM141.77 14.25l-4.1-.7.28-1.68 10.17 1.72-.28 1.68-4.1-.69-1.86 11-2-.33ZM150.1 26.74a5.94 5.94 0 0 1-1.43-2.93 7.5 7.5 0 0 1 .25-3.52 7.43 7.43 0 0 1 1.75-3.07 5.8 5.8 0 0 1 2.81-1.64 6.28 6.28 0 0 1 3.42.15 6.18 6.18 0 0 1 2.93 1.78 5.72 5.72 0 0 1 1.43 2.91A7.41 7.41 0 0 1 161 24a7.54 7.54 0 0 1-1.73 3 5.8 5.8 0 0 1-2.81 1.64 6.8 6.8 0 0 1-6.36-1.92Zm.78-2.13a4.31 4.31 0 0 0 6.12 1.85 5.73 5.73 0 0 0 2-3.11 5.78 5.78 0 0 0 0-3.72 4.34 4.34 0 0 0-6.12-1.85 5.8 5.8 0 0 0-2 3.11 5.84 5.84 0 0 0 0 3.72ZM172.5 21.82l2.29 1.25-1.59 10.66 8.11-7.1 2.29 1.25-6.16 11.3-1.71-.93 4.79-8.77-7.89 7.07-1.44-.78 1.67-10.47-4.78 8.77-1.71-.93ZM188 30.89l7.31 5.44-1 1.37-5.72-4.25-2.18 2.93 5 3.73-1 1.37-5-3.73L183 41l5.86 4.37-1 1.37-7.44-5.55ZM198.83 39.31l6.59 6.28-1.17 1.24-5.17-4.92-2.52 2.65 4.53 4.3-1.18 1.24-4.53-4.3-2.81 3 5.29 5-1.18 1.2-6.68-6.37ZM209.05 52.29l-2.66-3.19 1.32-1.1 6.59 7.94L213 57l-2.66-3.2-8.6 7.2-1.28-1.54ZM214.25 69.83l4.31-7.9 1.09 1.85-3.55 6.1 7.06-.15 1.08 1.83h-9l-4.44 2.61-1-1.72ZM215.32 81.34a5.8 5.8 0 0 1 1.32-3 8 8 0 0 1 6.36-2.7 5.82 5.82 0 0 1 3.06 1.1 6.86 6.86 0 0 1 2.62 6.1 5.78 5.78 0 0 1-1.31 3 7.42 7.42 0 0 1-2.86 2.08 7.49 7.49 0 0 1-3.47.64 5.89 5.89 0 0 1-3.07-1.1 6.84 6.84 0 0 1-2.62-6.1Zm2.13-.78a4.32 4.32 0 0 0 2.55 5.88 6.61 6.61 0 0 0 6.56-2.82 4.35 4.35 0 0 0-2.56-5.87 6.57 6.57 0 0 0-6.55 2.81ZM220.64 94a4.59 4.59 0 0 1 3-2.08l8.2-2.21.52 1.91-8.21 2.22a2.9 2.9 0 0 0-1.93 1.3 3.19 3.19 0 0 0-.09 2.39 3.22 3.22 0 0 0 1.28 2 2.92 2.92 0 0 0 2.33.15l8.2-2.21.52 1.93-8.2 2.21a4.54 4.54 0 0 1-3.61-.31 6.51 6.51 0 0 1-2-7.33ZM229.22 115.25l.29 4.81-1.67.1-.29-4.81ZM236.87 134l-.33 2-10.36.64 9.59 4.23-.33 2.06-10.44 1.16 9.65 3.84-.33 2-12.2-5.22.34-2.09 10.65-1.07-9.8-4.32.34-2.11ZM233 154.19l-2.76 8.68-1.63-.51 2.16-6.8-3.48-1.1-1.89 5.95-1.63-.52 1.89-5.95-3.9-1.24-2.21 7-1.63-.52 2.81-8.85ZM228.59 167.1l-.82 1.8-10.17-4.59-2.68 5.93-1.56-.7 3.5-7.74ZM212 173.26a5.68 5.68 0 0 1 3.12-.58 7.64 7.64 0 0 1 3.34 1.13 7.79 7.79 0 0 1 2.58 2.41 5.68 5.68 0 0 1 1 3 5.91 5.91 0 0 1-.89 3.16 6.05 6.05 0 0 1-2 2.06 5 5 0 0 1-2.39.77 5.24 5.24 0 0 1-2.47-.47l1.06-1.77a4 4 0 0 0 2.3.18 3.27 3.27 0 0 0 2-1.68 3.35 3.35 0 0 0 .3-3.27 7 7 0 0 0-6.1-3.65 3.3 3.3 0 0 0-2.74 1.81 3.21 3.21 0 0 0-.51 2.66 3.74 3.74 0 0 0 1.48 2l-1.08 1.8a5.69 5.69 0 0 1-1.76-2 4.85 4.85 0 0 1-.52-2.53 5.94 5.94 0 0 1 .89-2.72 5.83 5.83 0 0 1 2.39-2.31ZM204.41 184.85a5.85 5.85 0 0 1 3.24-.22A8.06 8.06 0 0 1 213 189a5.79 5.79 0 0 1 .45 3.22 6.89 6.89 0 0 1-4.18 5.16 5.76 5.76 0 0 1-3.24.22 7.3 7.3 0 0 1-3.17-1.56 7.47 7.47 0 0 1-2.19-2.78 5.87 5.87 0 0 1-.46-3.22 6.78 6.78 0 0 1 4.19-5.16Zm1.67 1.52a4.31 4.31 0 0 0-4 5 6.58 6.58 0 0 0 5.54 4.5 4.36 4.36 0 0 0 4-5 6.58 6.58 0 0 0-5.55-4.49ZM204.53 203.57l-1.93 1.75-9.54-5 4 10-1.94 1.75-8.63-9.54 1.44-1.31 6.7 7.41-4.07-9.79 1.21-1.1 9.33 5-6.7-7.41 1.5-1.33ZM190.86 215.24l-7.55 5.11-.95-1.42 5.9-4-2-3-5.17 3.5-1-1.41 5.17-3.5-2.26-3.41-6.05 4.1-1-1.42 7.69-5.2ZM171.83 218.17l-4.35 2.09-.73-1.51 4.35-2.09ZM161.42 230.8l-2.17.65-8.57-7.78 2.84 9.49-1.92.57-3.69-12.33 2.18-.65 8.58 7.77-2.84-9.52 1.9-.56ZM146.77 234.72l-2 .37-2.46-12.63 1.94-.38ZM136.66 224a5.66 5.66 0 0 1 2.32 2.16 8.28 8.28 0 0 1 .66 6.87 5.63 5.63 0 0 1-1.87 2.58 5.88 5.88 0 0 1-3.08 1.15 5.94 5.94 0 0 1-2.8-.34 4.89 4.89 0 0 1-2-1.47 5.24 5.24 0 0 1-1.09-2.26l2.06-.2a4 4 0 0 0 1.22 2 3.26 3.26 0 0 0 2.54.62 3.35 3.35 0 0 0 2.81-1.7 7 7 0 0 0-.68-7.08 3.33 3.33 0 0 0-3.08-1.13 3.28 3.28 0 0 0-2.45 1.16 3.72 3.72 0 0 0-.72 2.38l-2.06.2a5.84 5.84 0 0 1 .59-2.63 5 5 0 0 1 1.74-1.92 6 6 0 0 1 2.71-.89 5.78 5.78 0 0 1 3.18.5ZM124.79 237.07l-9.11-.29.06-1.7 7.12.22.12-3.65-6.25-.2.06-1.71 6.24.2.13-4.09-7.31-.23.06-1.7 9.28.29ZM103.36 233.36l4.08.81-.33 1.67-10.12-2 .34-1.68 4.07.81 2.17-10.97 2 .39ZM95.39 220.64a5.86 5.86 0 0 1 1.34 3 7.94 7.94 0 0 1-2.18 6.55 5.8 5.8 0 0 1-2.85 1.55 6.33 6.33 0 0 1-3.42-.24 6.44 6.44 0 0 1-2.88-1.86 5.89 5.89 0 0 1-1.35-2.95 7.44 7.44 0 0 1 .35-3.52 7.56 7.56 0 0 1 1.83-3 6 6 0 0 1 2.86-1.56 6.82 6.82 0 0 1 6.3 2.1Zm-.84 2.1a4.3 4.3 0 0 0-6.06-2 6.54 6.54 0 0 0-2.25 6.77 3.73 3.73 0 0 0 2.58 2.34 3.77 3.77 0 0 0 3.48-.32 6.59 6.59 0 0 0 2.25-6.78ZM72.83 224.92l-2.25-1.32 1.88-10.6-8.31 6.87-2.25-1.32 6.47-11.12 1.68 1L65 217l8.09-6.85 1.41.82-2 10.42 5-8.63 1.68 1ZM57.56 215.43l-7.15-5.64 1.06-1.34 5.6 4.41 2.26-2.86-4.9-3.87 1.06-1.34 4.9 3.87 2.53-3.21-5.74-4.53 1.06-1.34 7.3 5.75ZM47 206.72l-6.42-6.46 1.21-1.2 5 5.05 2.59-2.57-4.38-4.43 1.21-1.21 4.4 4.43 2.9-2.88-5.15-5.18 1.21-1.21 6.55 6.59ZM37.16 193.45l2.57 3.28-1.35 1.05-6.38-8.11 1.34-1.06 2.57 3.27 8.8-6.88 1.23 1.58ZM32.45 175.79l-4.53 7.77-1-1.88 3.72-6-7.06-.05-1-1.86 9 .3 4.42-2.52 1 1.75ZM31.7 164.26a5.84 5.84 0 0 1-1.4 2.94 7.38 7.38 0 0 1-2.91 2 7.51 7.51 0 0 1-3.5.54 5.75 5.75 0 0 1-3-1.18 6.87 6.87 0 0 1-2.45-6.17 5.82 5.82 0 0 1 1.39-2.94 8 8 0 0 1 6.41-2.54 5.75 5.75 0 0 1 3 1.18 6.23 6.23 0 0 1 2 2.77 6.17 6.17 0 0 1 .46 3.4Zm-2.14.72A4.33 4.33 0 0 0 27.2 159a5.8 5.8 0 0 0-3.71.34 5.73 5.73 0 0 0-2.92 2.29 4.33 4.33 0 0 0 2.35 5.94 5.75 5.75 0 0 0 3.7-.33 5.9 5.9 0 0 0 2.94-2.24ZM26.73 151.43a4.57 4.57 0 0 1-3 2l-8.26 2-.47-1.94 8.26-2a2.88 2.88 0 0 0 2-1.25 3.29 3.29 0 0 0 .16-2.39 3.2 3.2 0 0 0-1.23-2.06 2.86 2.86 0 0 0-2.32-.21l-8.26 2-.47-1.94 8.26-2a4.58 4.58 0 0 1 3.6.41 5.18 5.18 0 0 1 2 3.41 5.13 5.13 0 0 1-.27 3.97ZM19.16 135.17l-.39-4.81 1.67-.14.39 4.81Z"/></svg>